<?xml version="1.0" standalone="no"?>
<!DOCTYPE svg PUBLIC "-//W3C//DTD SVG 20010904//EN"
 "http://www.w3.org/TR/2001/REC-SVG-20010904/DTD/svg10.dtd">
<svg version="1.0" xmlns="http://www.w3.org/2000/svg"
 width="807.000000pt" height="795.000000pt" viewBox="0 0 807.000000 795.000000"
 preserveAspectRatio="xMidYMid meet">

<g transform="translate(0.000000,795.000000) scale(0.100000,-0.100000)"
fill="#000000" stroke="none">
<path d="M3750 7700 c-606 -57 -1137 -229 -1645 -531 -513 -305 -936 -722
-1268 -1247 -82 -130 -238 -438 -294 -582 -237 -608 -313 -1247 -223 -1872 11
-75 24 -146 28 -157 6 -16 64 42 353 352 191 205 393 424 450 487 924 1025
1684 1521 2499 1631 122 16 408 16 530 0 121 -16 332 -70 432 -110 562 -223
938 -675 1065 -1280 23 -109 27 -151 27 -311 1 -154 -3 -204 -22 -297 -104
-516 -443 -949 -927 -1183 -277 -134 -566 -191 -790 -157 -216 33 -380 119
-540 281 -111 113 -170 204 -228 351 -73 185 -91 399 -53 615 33 188 9 358
-67 472 -38 56 -138 138 -218 179 -92 46 -177 62 -299 56 -315 -15 -675 -240
-1141 -714 -127 -129 -816 -893 -887 -985 -11 -14 -6 -33 32 -126 373 -912
1143 -1664 2081 -2035 320 -126 662 -209 1025 -249 148 -16 591 -16 740 0 933
100 1733 484 2370 1138 570 586 921 1316 1027 2139 25 198 25 672 0 870 -107
830 -450 1548 -1017 2129 -613 630 -1363 1002 -2262 1122 -135 18 -638 27
-778 14z"/>
</g>
</svg>
